<?xml version="1.0" encoding="UTF-8"?>
<svg xmlns="http://www.w3.org/2000/svg" xmlns:xlink="http://www.w3.org/1999/xlink" width="3873" height="3873" viewBox="0 0 3873 3873">
<defs>
<clipPath id="clip-0">
<path clip-rule="evenodd" d="M 1936.5 0 C 3006 0 3873 867 3873 1936.5 C 3873 3006 3006 3873 1936.5 3873 C 867 3873 0 3006 0 1936.5 C 0 867 867 0 1936.5 0 "/>
</clipPath>
<linearGradient id="linear-pattern-0" gradientUnits="userSpaceOnUse" x1="-0.500008" y1="0" x2="1.500007" y2="0" gradientTransform="matrix(2072.1, -1778.48, 1778.48, 2072.1, 900.452, 2825.74)">
<stop offset="0" stop-color="rgb(95.684814%, 2.745056%, 40.783691%)" stop-opacity="1"/>
<stop offset="0.25" stop-color="rgb(95.684814%, 2.745056%, 40.783691%)" stop-opacity="1"/>
<stop offset="0.253906" stop-color="rgb(94.86084%, 3.482056%, 41.343689%)" stop-opacity="1"/>
<stop offset="0.257812" stop-color="rgb(94.038391%, 4.220581%, 41.905212%)" stop-opacity="1"/>
<stop offset="0.261719" stop-color="rgb(93.214417%, 4.959106%, 42.46521%)" stop-opacity="1"/>
<stop offset="0.265625" stop-color="rgb(92.390442%, 5.697632%, 43.026733%)" stop-opacity="1"/>
<stop offset="0.269531" stop-color="rgb(91.566467%, 6.436157%, 43.588257%)" stop-opacity="1"/>
<stop offset="0.273437" stop-color="rgb(90.742493%, 7.176208%, 44.14978%)" stop-opacity="1"/>
<stop offset="0.277344" stop-color="rgb(89.918518%, 7.914734%, 44.709778%)" stop-opacity="1"/>
<stop offset="0.28125" stop-color="rgb(89.096069%, 8.653259%, 45.271301%)" stop-opacity="1"/>
<stop offset="0.285156" stop-color="rgb(88.272095%, 9.391785%, 45.832825%)" stop-opacity="1"/>
<stop offset="0.289062" stop-color="rgb(87.44812%, 10.13031%, 46.394348%)" stop-opacity="1"/>
<stop offset="0.292969" stop-color="rgb(86.624146%, 10.868835%, 46.954346%)" stop-opacity="1"/>
<stop offset="0.296875" stop-color="rgb(85.800171%, 11.607361%, 47.515869%)" stop-opacity="1"/>
<stop offset="0.300781" stop-color="rgb(84.976196%, 12.345886%, 48.075867%)" stop-opacity="1"/>
<stop offset="0.304688" stop-color="rgb(84.152222%, 13.084412%, 48.63739%)" stop-opacity="1"/>
<stop offset="0.308594" stop-color="rgb(83.328247%, 13.822937%, 49.198914%)" stop-opacity="1"/>
<stop offset="0.3125" stop-color="rgb(82.504272%, 14.561462%, 49.760437%)" stop-opacity="1"/>
<stop offset="0.316406" stop-color="rgb(81.680298%, 15.299988%, 50.320435%)" stop-opacity="1"/>
<stop offset="0.320312" stop-color="rgb(80.857849%, 16.038513%, 50.881958%)" stop-opacity="1"/>
<stop offset="0.324219" stop-color="rgb(80.033875%, 16.777039%, 51.441956%)" stop-opacity="1"/>
<stop offset="0.328125" stop-color="rgb(79.2099%, 17.515564%, 52.003479%)" stop-opacity="1"/>
<stop offset="0.332031" stop-color="rgb(78.385925%, 18.254089%, 52.565002%)" stop-opacity="1"/>
<stop offset="0.335938" stop-color="rgb(77.561951%, 18.992615%, 53.126526%)" stop-opacity="1"/>
<stop offset="0.339844" stop-color="rgb(76.737976%, 19.73114%, 53.686523%)" stop-opacity="1"/>
<stop offset="0.34375" stop-color="rgb(75.914001%, 20.469666%, 54.248047%)" stop-opacity="1"/>
<stop offset="0.347656" stop-color="rgb(75.090027%, 21.208191%, 54.80957%)" stop-opacity="1"/>
<stop offset="0.351562" stop-color="rgb(74.266052%, 21.946716%, 55.371094%)" stop-opacity="1"/>
<stop offset="0.355469" stop-color="rgb(73.442078%, 22.685242%, 55.931091%)" stop-opacity="1"/>
<stop offset="0.359375" stop-color="rgb(72.619629%, 23.425293%, 56.492615%)" stop-opacity="1"/>
<stop offset="0.363281" stop-color="rgb(71.795654%, 24.163818%, 57.052612%)" stop-opacity="1"/>
<stop offset="0.367187" stop-color="rgb(70.97168%, 24.902344%, 57.614136%)" stop-opacity="1"/>
<stop offset="0.371094" stop-color="rgb(70.147705%, 25.640869%, 58.175659%)" stop-opacity="1"/>
<stop offset="0.375" stop-color="rgb(69.32373%, 26.379395%, 58.737183%)" stop-opacity="1"/>
<stop offset="0.378906" stop-color="rgb(68.499756%, 27.11792%, 59.29718%)" stop-opacity="1"/>
<stop offset="0.382812" stop-color="rgb(67.675781%, 27.856445%, 59.858704%)" stop-opacity="1"/>
<stop offset="0.386719" stop-color="rgb(66.851807%, 28.594971%, 60.418701%)" stop-opacity="1"/>
<stop offset="0.390625" stop-color="rgb(66.027832%, 29.333496%, 60.980225%)" stop-opacity="1"/>
<stop offset="0.394531" stop-color="rgb(65.203857%, 30.072021%, 61.541748%)" stop-opacity="1"/>
<stop offset="0.398438" stop-color="rgb(64.381409%, 30.810547%, 62.103271%)" stop-opacity="1"/>
<stop offset="0.402344" stop-color="rgb(63.557434%, 31.549072%, 62.663269%)" stop-opacity="1"/>
<stop offset="0.40625" stop-color="rgb(62.733459%, 32.287598%, 63.224792%)" stop-opacity="1"/>
<stop offset="0.410156" stop-color="rgb(61.909485%, 33.026123%, 63.786316%)" stop-opacity="1"/>
<stop offset="0.414062" stop-color="rgb(61.08551%, 33.764648%, 64.347839%)" stop-opacity="1"/>
<stop offset="0.417969" stop-color="rgb(60.261536%, 34.503174%, 64.907837%)" stop-opacity="1"/>
<stop offset="0.421875" stop-color="rgb(59.437561%, 35.241699%, 65.46936%)" stop-opacity="1"/>
<stop offset="0.425781" stop-color="rgb(58.613586%, 35.980225%, 66.029358%)" stop-opacity="1"/>
<stop offset="0.429688" stop-color="rgb(57.791138%, 36.71875%, 66.590881%)" stop-opacity="1"/>
<stop offset="0.433594" stop-color="rgb(56.967163%, 37.457275%, 67.152405%)" stop-opacity="1"/>
<stop offset="0.4375" stop-color="rgb(56.143188%, 38.195801%, 67.713928%)" stop-opacity="1"/>
<stop offset="0.441406" stop-color="rgb(55.319214%, 38.934326%, 68.273926%)" stop-opacity="1"/>
<stop offset="0.445312" stop-color="rgb(54.495239%, 39.674377%, 68.835449%)" stop-opacity="1"/>
<stop offset="0.449219" stop-color="rgb(53.671265%, 40.412903%, 69.395447%)" stop-opacity="1"/>
<stop offset="0.453125" stop-color="rgb(52.84729%, 41.151428%, 69.95697%)" stop-opacity="1"/>
<stop offset="0.457031" stop-color="rgb(52.023315%, 41.889954%, 70.518494%)" stop-opacity="1"/>
<stop offset="0.460938" stop-color="rgb(51.199341%, 42.628479%, 71.080017%)" stop-opacity="1"/>
<stop offset="0.464844" stop-color="rgb(50.505066%, 43.251038%, 71.556091%)" stop-opacity="1"/>
<stop offset="0.46875" stop-color="rgb(49.812317%, 43.873596%, 72.033691%)" stop-opacity="1"/>
<stop offset="0.472656" stop-color="rgb(49.320984%, 44.314575%, 72.37854%)" stop-opacity="1"/>
<stop offset="0.476562" stop-color="rgb(48.831177%, 44.75708%, 72.723389%)" stop-opacity="1"/>
<stop offset="0.480469" stop-color="rgb(48.34137%, 45.198059%, 73.068237%)" stop-opacity="1"/>
<stop offset="0.484375" stop-color="rgb(47.851562%, 45.640564%, 73.413086%)" stop-opacity="1"/>
<stop offset="0.488281" stop-color="rgb(47.360229%, 46.081543%, 73.757935%)" stop-opacity="1"/>
<stop offset="0.492188" stop-color="rgb(46.870422%, 46.524048%, 74.102783%)" stop-opacity="1"/>
<stop offset="0.496094" stop-color="rgb(46.379089%, 46.965027%, 74.447632%)" stop-opacity="1"/>
<stop offset="0.5" stop-color="rgb(45.889282%, 47.407532%, 74.79248%)" stop-opacity="1"/>
<stop offset="0.503906" stop-color="rgb(45.399475%, 47.850037%, 75.137329%)" stop-opacity="1"/>
<stop offset="0.507812" stop-color="rgb(44.909668%, 48.292542%, 75.482178%)" stop-opacity="1"/>
<stop offset="0.511719" stop-color="rgb(44.418335%, 48.733521%, 75.827026%)" stop-opacity="1"/>
<stop offset="0.515625" stop-color="rgb(43.928528%, 49.176025%, 76.171875%)" stop-opacity="1"/>
<stop offset="0.519531" stop-color="rgb(43.437195%, 49.617004%, 76.516724%)" stop-opacity="1"/>
<stop offset="0.523438" stop-color="rgb(42.947388%, 50.059509%, 76.861572%)" stop-opacity="1"/>
<stop offset="0.527344" stop-color="rgb(42.457581%, 50.500488%, 77.206421%)" stop-opacity="1"/>
<stop offset="0.53125" stop-color="rgb(41.967773%, 50.942993%, 77.55127%)" stop-opacity="1"/>
<stop offset="0.535156" stop-color="rgb(41.47644%, 51.383972%, 77.896118%)" stop-opacity="1"/>
<stop offset="0.539062" stop-color="rgb(40.986633%, 51.826477%, 78.240967%)" stop-opacity="1"/>
<stop offset="0.542969" stop-color="rgb(40.4953%, 52.267456%, 78.585815%)" stop-opacity="1"/>
<stop offset="0.546875" stop-color="rgb(40.005493%, 52.709961%, 78.930664%)" stop-opacity="1"/>
<stop offset="0.550781" stop-color="rgb(39.515686%, 53.15094%, 79.275513%)" stop-opacity="1"/>
<stop offset="0.554688" stop-color="rgb(39.025879%, 53.593445%, 79.620361%)" stop-opacity="1"/>
<stop offset="0.558594" stop-color="rgb(38.534546%, 54.034424%, 79.96521%)" stop-opacity="1"/>
<stop offset="0.5625" stop-color="rgb(38.044739%, 54.476929%, 80.310059%)" stop-opacity="1"/>
<stop offset="0.566406" stop-color="rgb(37.553406%, 54.919434%, 80.654907%)" stop-opacity="1"/>
<stop offset="0.570312" stop-color="rgb(37.063599%, 55.361938%, 80.999756%)" stop-opacity="1"/>
<stop offset="0.574219" stop-color="rgb(36.573792%, 55.802917%, 81.344604%)" stop-opacity="1"/>
<stop offset="0.578125" stop-color="rgb(36.083984%, 56.245422%, 81.689453%)" stop-opacity="1"/>
<stop offset="0.582031" stop-color="rgb(35.592651%, 56.686401%, 82.034302%)" stop-opacity="1"/>
<stop offset="0.585938" stop-color="rgb(35.102844%, 57.128906%, 82.37915%)" stop-opacity="1"/>
<stop offset="0.589844" stop-color="rgb(34.611511%, 57.569885%, 82.723999%)" stop-opacity="1"/>
<stop offset="0.59375" stop-color="rgb(34.121704%, 58.01239%, 83.068848%)" stop-opacity="1"/>
<stop offset="0.597656" stop-color="rgb(33.631897%, 58.453369%, 83.413696%)" stop-opacity="1"/>
<stop offset="0.601562" stop-color="rgb(33.14209%, 58.895874%, 83.758545%)" stop-opacity="1"/>
<stop offset="0.605469" stop-color="rgb(32.650757%, 59.336853%, 84.103394%)" stop-opacity="1"/>
<stop offset="0.609375" stop-color="rgb(32.16095%, 59.779358%, 84.448242%)" stop-opacity="1"/>
<stop offset="0.613281" stop-color="rgb(31.669617%, 60.220337%, 84.793091%)" stop-opacity="1"/>
<stop offset="0.617188" stop-color="rgb(31.17981%, 60.662842%, 85.137939%)" stop-opacity="1"/>
<stop offset="0.621094" stop-color="rgb(30.688477%, 61.103821%, 85.482788%)" stop-opacity="1"/>
<stop offset="0.625" stop-color="rgb(30.198669%, 61.546326%, 85.827637%)" stop-opacity="1"/>
<stop offset="0.628906" stop-color="rgb(29.708862%, 61.988831%, 86.172485%)" stop-opacity="1"/>
<stop offset="0.632812" stop-color="rgb(29.219055%, 62.431335%, 86.517334%)" stop-opacity="1"/>
<stop offset="0.636719" stop-color="rgb(28.727722%, 62.872314%, 86.862183%)" stop-opacity="1"/>
<stop offset="0.640625" stop-color="rgb(28.237915%, 63.314819%, 87.207031%)" stop-opacity="1"/>
<stop offset="0.644531" stop-color="rgb(27.746582%, 63.755798%, 87.55188%)" stop-opacity="1"/>
<stop offset="0.648437" stop-color="rgb(27.256775%, 64.198303%, 87.896729%)" stop-opacity="1"/>
<stop offset="0.652344" stop-color="rgb(26.766968%, 64.639282%, 88.241577%)" stop-opacity="1"/>
<stop offset="0.65625" stop-color="rgb(26.277161%, 65.081787%, 88.586426%)" stop-opacity="1"/>
<stop offset="0.660156" stop-color="rgb(25.785828%, 65.522766%, 88.931274%)" stop-opacity="1"/>
<stop offset="0.664062" stop-color="rgb(25.296021%, 65.965271%, 89.276123%)" stop-opacity="1"/>
<stop offset="0.667969" stop-color="rgb(24.804688%, 66.40625%, 89.620972%)" stop-opacity="1"/>
<stop offset="0.671875" stop-color="rgb(24.31488%, 66.848755%, 89.96582%)" stop-opacity="1"/>
<stop offset="0.675781" stop-color="rgb(23.825073%, 67.289734%, 90.310669%)" stop-opacity="1"/>
<stop offset="0.679688" stop-color="rgb(23.335266%, 67.732239%, 90.655518%)" stop-opacity="1"/>
<stop offset="0.683594" stop-color="rgb(22.843933%, 68.173218%, 91.000366%)" stop-opacity="1"/>
<stop offset="0.6875" stop-color="rgb(22.354126%, 68.615723%, 91.345215%)" stop-opacity="1"/>
<stop offset="0.691406" stop-color="rgb(21.862793%, 69.058228%, 91.690063%)" stop-opacity="1"/>
<stop offset="0.695312" stop-color="rgb(21.372986%, 69.500732%, 92.034912%)" stop-opacity="1"/>
<stop offset="0.699219" stop-color="rgb(20.883179%, 69.941711%, 92.379761%)" stop-opacity="1"/>
<stop offset="0.703125" stop-color="rgb(20.393372%, 70.384216%, 92.724609%)" stop-opacity="1"/>
<stop offset="0.707031" stop-color="rgb(19.902039%, 70.825195%, 93.069458%)" stop-opacity="1"/>
<stop offset="0.710938" stop-color="rgb(19.412231%, 71.2677%, 93.414307%)" stop-opacity="1"/>
<stop offset="0.714844" stop-color="rgb(18.920898%, 71.708679%, 93.759155%)" stop-opacity="1"/>
<stop offset="0.71875" stop-color="rgb(18.431091%, 72.151184%, 94.104004%)" stop-opacity="1"/>
<stop offset="0.722656" stop-color="rgb(17.941284%, 72.592163%, 94.448853%)" stop-opacity="1"/>
<stop offset="0.726562" stop-color="rgb(17.451477%, 73.034668%, 94.793701%)" stop-opacity="1"/>
<stop offset="0.730469" stop-color="rgb(16.960144%, 73.475647%, 95.13855%)" stop-opacity="1"/>
<stop offset="0.734375" stop-color="rgb(16.470337%, 73.918152%, 95.483398%)" stop-opacity="1"/>
<stop offset="0.738281" stop-color="rgb(15.979004%, 74.359131%, 95.828247%)" stop-opacity="1"/>
<stop offset="0.742187" stop-color="rgb(15.489197%, 74.801636%, 96.173096%)" stop-opacity="1"/>
<stop offset="0.746094" stop-color="rgb(14.99939%, 75.242615%, 96.516418%)" stop-opacity="1"/>
<stop offset="0.75" stop-color="rgb(14.509583%, 75.68512%, 96.861267%)" stop-opacity="1"/>
<stop offset="1" stop-color="rgb(14.509583%, 75.68512%, 96.861267%)" stop-opacity="1"/>
</linearGradient>
</defs>
<g clip-path="url(#clip-0)">
<path fill-rule="nonzero" fill="url(#linear-pattern-0)" d="M -1914.109375 1642.878906 L 1642.878906 5787.109375 L 5787.109375 2230.121094 L 2230.121094 -1914.109375 Z M -1914.109375 1642.878906 "/>
</g>
<path fill-rule="nonzero" fill="rgb(100%, 100%, 99.609375%)" fill-opacity="1" d="M 2029 1605.5 L 2029 1552.199219 C 2029 1528.898438 2018.101562 1508 2000.601562 1493 C 1984 1478.800781 1961.300781 1469.898438 1936.5 1469.898438 C 1911.800781 1469.898438 1889.101562 1478.898438 1872.398438 1493.199219 C 1854.898438 1508.300781 1844 1529.398438 1844 1552.601562 L 1844 1606.699219 C 1844 1618.800781 2029 1617.5 2029 1605.5 "/>
<path fill-rule="nonzero" fill="rgb(100%, 100%, 99.609375%)" fill-opacity="1" d="M 2359.101562 1222.601562 C 2371.101562 1222.601562 2380.800781 1212.898438 2380.800781 1200.898438 C 2380.800781 1188.898438 2371.101562 1179.199219 2359.101562 1179.199219 L 1459.800781 1179.199219 C 1424 1179.199219 1394.800781 1208.398438 1394.800781 1244.199219 L 1394.800781 1330.898438 C 1394.800781 1366.699219 1424 1395.898438 1459.800781 1395.898438 L 1905.398438 1395.898438 C 1918.800781 1395.898438 1928.898438 1398.101562 1936 1401.898438 C 1941.601562 1404.898438 1945.199219 1409.101562 1946.898438 1414 C 1948.898438 1419.800781 1948.699219 1427.101562 1946.398438 1435.300781 C 1942.800781 1448.300781 1934.101562 1462.699219 1920.800781 1476.800781 C 1912.601562 1485.5 1913 1499.199219 1921.699219 1507.398438 C 1930.398438 1515.601562 1944.101562 1515.199219 1952.300781 1506.5 C 1970.5 1487.199219 1982.601562 1466.5 1988.101562 1447 C 1992.800781 1430.300781 1992.800781 1414.199219 1987.898438 1400 C 1982.699219 1384.898438 1972.300781 1372.398438 1956.398438 1363.898438 C 1943.101562 1356.800781 1926.101562 1352.699219 1905.5 1352.699219 L 1459.898438 1352.699219 C 1448 1352.699219 1438.199219 1342.898438 1438.199219 1331 L 1438.199219 1244.300781 C 1438.199219 1232.398438 1448 1222.601562 1459.898438 1222.601562 L 2359.101562 1222.601562 "/>
<path fill-rule="nonzero" fill="rgb(100%, 100%, 99.609375%)" fill-opacity="1" d="M 2481.199219 1066.300781 C 2518.398438 1066.300781 2552.101562 1081.398438 2576.398438 1105.699219 C 2600.800781 1130.101562 2615.800781 1163.699219 2615.800781 1200.898438 C 2615.800781 1238.101562 2600.699219 1271.800781 2576.398438 1296.101562 C 2552 1320.5 2518.398438 1335.5 2481.199219 1335.5 C 2444 1335.5 2410.300781 1320.398438 2386 1296.101562 C 2361.699219 1271.800781 2346.601562 1238.101562 2346.601562 1200.898438 C 2346.601562 1163.699219 2361.699219 1130 2386 1105.699219 C 2410.300781 1081.398438 2444 1066.300781 2481.199219 1066.300781 "/>
<path fill-rule="evenodd" fill="rgb(100%, 100%, 99.609375%)" fill-opacity="1" d="M 2694.800781 1959.699219 C 2672.898438 1959.699219 2653 1950.800781 2638.699219 1936.5 C 2624.300781 1922.101562 2615.5 1902.300781 2615.5 1880.398438 C 2615.5 1858.5 2624.398438 1838.601562 2638.699219 1824.300781 C 2653.101562 1809.898438 2672.898438 1801.101562 2694.800781 1801.101562 C 2716.699219 1801.101562 2736.601562 1810 2750.898438 1824.300781 C 2765.300781 1838.699219 2774.101562 1858.5 2774.101562 1880.398438 C 2774.101562 1902.300781 2765.199219 1922.199219 2750.898438 1936.5 C 2736.601562 1950.800781 2716.699219 1959.699219 2694.800781 1959.699219 Z M 2615.398438 2053.398438 C 2615.398438 2031.5 2624.300781 2011.601562 2638.601562 1997.300781 C 2653 1982.898438 2672.800781 1974.101562 2694.699219 1974.101562 C 2716.601562 1974.101562 2736.5 1983 2750.800781 1997.300781 C 2765.199219 2011.699219 2774 2031.5 2774 2053.398438 C 2774 2075.300781 2765.101562 2095.199219 2750.800781 2109.5 C 2736.398438 2123.898438 2716.601562 2132.699219 2694.699219 2132.699219 C 2672.800781 2132.699219 2652.898438 2123.800781 2638.601562 2109.5 C 2624.300781 2095.199219 2615.398438 2075.300781 2615.398438 2053.398438 Z M 2442.300781 2053.398438 C 2442.300781 2031.5 2451.199219 2011.601562 2465.5 1997.300781 C 2479.898438 1982.898438 2499.699219 1974.101562 2521.601562 1974.101562 C 2543.5 1974.101562 2563.398438 1983 2577.699219 1997.300781 C 2592.101562 2011.699219 2600.898438 2031.5 2600.898438 2053.398438 C 2600.898438 2075.300781 2592 2095.199219 2577.699219 2109.5 C 2563.300781 2123.898438 2543.5 2132.699219 2521.601562 2132.699219 C 2499.699219 2132.699219 2479.800781 2123.800781 2465.5 2109.5 C 2451.199219 2095.199219 2442.300781 2075.300781 2442.300781 2053.398438 Z M 1394.699219 2048.199219 C 1394.699219 2060.199219 1385 2069.898438 1373 2069.898438 L 1243 2069.898438 L 1243 2199.898438 C 1243 2211.898438 1233.300781 2221.601562 1221.300781 2221.601562 C 1209.300781 2221.601562 1199.601562 2211.898438 1199.601562 2199.898438 L 1199.601562 2069.898438 L 1069.601562 2069.898438 C 1057.601562 2069.898438 1047.898438 2060.199219 1047.898438 2048.199219 C 1047.898438 2036.199219 1057.601562 2026.5 1069.601562 2026.5 L 1199.601562 2026.5 L 1199.601562 1896.5 C 1199.601562 1884.5 1209.300781 1874.800781 1221.300781 1874.800781 C 1233.300781 1874.800781 1243 1884.5 1243 1896.5 L 1243 2026.5 L 1373 2026.5 C 1385 2026.5 1394.699219 2036.300781 1394.699219 2048.199219 Z M 2465.601562 1824.199219 C 2480 1809.800781 2499.800781 1801 2521.699219 1801 C 2543.601562 1801 2563.5 1809.898438 2577.800781 1824.199219 C 2592.101562 1838.5 2601 1858.398438 2601 1880.300781 C 2601 1902.199219 2592.101562 1922.101562 2577.800781 1936.398438 C 2563.398438 1950.800781 2543.601562 1959.601562 2521.699219 1959.601562 C 2499.800781 1959.601562 2479.898438 1950.699219 2465.601562 1936.398438 C 2451.199219 1922 2442.398438 1902.199219 2442.398438 1880.300781 C 2442.398438 1858.398438 2451.199219 1838.5 2465.601562 1824.199219 Z M 2028.800781 1780.800781 C 2052.300781 1757.300781 2084.800781 1742.699219 2120.699219 1742.699219 C 2156.601562 1742.699219 2189.101562 1757.300781 2212.601562 1780.800781 C 2236.101562 1804.300781 2250.699219 1836.800781 2250.699219 1872.699219 C 2250.699219 1908.601562 2236.101562 1941.101562 2212.601562 1964.601562 C 2189.101562 1988.101562 2156.601562 2002.699219 2120.699219 2002.699219 C 2084.800781 2002.699219 2052.300781 1988.101562 2028.800781 1964.601562 C 2005.300781 1941.101562 1990.699219 1908.601562 1990.699219 1872.699219 C 1990.699219 1836.800781 2005.199219 1804.300781 2028.800781 1780.800781 Z M 1622.300781 1872.699219 C 1622.300781 1836.800781 1636.898438 1804.300781 1660.398438 1780.800781 C 1683.898438 1757.300781 1716.398438 1742.699219 1752.300781 1742.699219 C 1788.199219 1742.699219 1820.699219 1757.300781 1844.199219 1780.800781 C 1867.699219 1804.300781 1882.300781 1836.800781 1882.300781 1872.699219 C 1882.300781 1908.601562 1867.699219 1941.101562 1844.199219 1964.601562 C 1820.699219 1988.101562 1788.199219 2002.699219 1752.300781 2002.699219 C 1716.398438 2002.699219 1683.898438 1988.101562 1660.398438 1964.601562 C 1636.800781 1941.101562 1622.300781 1908.601562 1622.300781 1872.699219 Z M 1929.101562 1589.601562 C 1900.699219 1589.898438 1872.300781 1590.398438 1844 1591.199219 C 1515.5 1600 1206.601562 1639.101562 1138.398438 1699.699219 C 1052.800781 1764.800781 977.699219 1951.199219 949.898438 2053.898438 C 914.898438 2183.199219 901.398438 2315.101562 896.800781 2415.5 C 893.398438 2489 917.199219 2633.398438 959.601562 2721.800781 C 982.898438 2770.398438 1027 2830.601562 1087.898438 2797 C 1187.5 2742 1386.601562 2189.199219 1529.300781 2108.699219 C 1594.101562 2138.800781 1968.101562 2296.398438 2345 2108.800781 C 2485.699219 2189.199219 2686.5 2742.199219 2785.601562 2797 C 2846.398438 2830.601562 2890.398438 2770.398438 2913.699219 2721.898438 C 2956.101562 2633.5 2979.800781 2489.101562 2976.398438 2415.5 C 2971.800781 2315.101562 2958.300781 2183.199219 2923.300781 2053.898438 C 2888.101562 1923.601562 2830.898438 1795.601562 2738.898438 1703.398438 C 2660.398438 1611.398438 2245.199219 1592.699219 2029.101562 1589.898438 C 1986.699219 1589.300781 1952.101562 1589.398438 1929.101562 1589.601562 "/>
<path fill-rule="evenodd" fill="rgb(100%, 100%, 99.609375%)" fill-opacity="1" d="M 1813.601562 1811.398438 C 1797.898438 1795.699219 1776.199219 1786 1752.300781 1786 C 1728.398438 1786 1706.699219 1795.699219 1691 1811.398438 C 1675.300781 1827.101562 1665.601562 1848.800781 1665.601562 1872.699219 C 1665.601562 1896.601562 1675.300781 1918.300781 1691 1934 C 1706.699219 1949.699219 1728.398438 1959.398438 1752.300781 1959.398438 C 1776.199219 1959.398438 1797.898438 1949.699219 1813.601562 1934 C 1829.300781 1918.300781 1839 1896.601562 1839 1872.699219 C 1839 1848.800781 1829.300781 1827.101562 1813.601562 1811.398438 "/>
<path fill-rule="evenodd" fill="rgb(100%, 100%, 99.609375%)" fill-opacity="1" d="M 2059.398438 1811.398438 C 2043.699219 1827.101562 2034 1848.800781 2034 1872.699219 C 2034 1896.601562 2043.699219 1918.300781 2059.398438 1934 C 2075.101562 1949.699219 2096.800781 1959.398438 2120.699219 1959.398438 C 2144.601562 1959.398438 2166.300781 1949.699219 2182 1934 C 2197.699219 1918.300781 2207.398438 1896.601562 2207.398438 1872.699219 C 2207.398438 1848.800781 2197.699219 1827.101562 2182 1811.398438 C 2166.300781 1795.699219 2144.601562 1786 2120.699219 1786 C 2096.800781 1786 2075.101562 1795.699219 2059.398438 1811.398438 "/>
<path fill-rule="evenodd" fill="rgb(100%, 100%, 99.609375%)" fill-opacity="1" d="M 2669.300781 2027.898438 C 2662.800781 2034.398438 2658.699219 2043.398438 2658.699219 2053.398438 C 2658.699219 2063.398438 2662.699219 2072.398438 2669.300781 2078.898438 C 2675.800781 2085.398438 2684.800781 2089.5 2694.800781 2089.5 C 2704.800781 2089.5 2713.800781 2085.5 2720.300781 2078.898438 C 2726.800781 2072.398438 2730.898438 2063.398438 2730.898438 2053.398438 C 2730.898438 2043.5 2726.898438 2034.398438 2720.300781 2027.898438 C 2713.800781 2021.398438 2704.800781 2017.300781 2694.800781 2017.300781 C 2684.898438 2017.398438 2675.898438 2021.398438 2669.300781 2027.898438 "/>
<path fill-rule="evenodd" fill="rgb(100%, 100%, 99.609375%)" fill-opacity="1" d="M 2557.800781 2053.398438 C 2557.800781 2043.5 2553.800781 2034.398438 2547.199219 2027.898438 C 2540.699219 2021.398438 2531.699219 2017.300781 2521.699219 2017.300781 C 2511.800781 2017.300781 2502.699219 2021.300781 2496.199219 2027.898438 C 2489.699219 2034.398438 2485.601562 2043.398438 2485.601562 2053.398438 C 2485.601562 2063.398438 2489.601562 2072.398438 2496.199219 2078.898438 C 2502.699219 2085.398438 2511.699219 2089.5 2521.699219 2089.5 C 2531.699219 2089.5 2540.699219 2085.5 2547.199219 2078.898438 C 2553.699219 2072.398438 2557.800781 2063.300781 2557.800781 2053.398438 "/>
<path fill-rule="evenodd" fill="rgb(100%, 100%, 99.609375%)" fill-opacity="1" d="M 2521.699219 1916.300781 C 2531.699219 1916.300781 2540.699219 1912.300781 2547.199219 1905.699219 C 2553.699219 1899.199219 2557.800781 1890.199219 2557.800781 1880.199219 C 2557.800781 1870.199219 2553.800781 1861.199219 2547.199219 1854.699219 C 2540.699219 1848.199219 2531.699219 1844.101562 2521.699219 1844.101562 C 2511.800781 1844.101562 2502.699219 1848.101562 2496.199219 1854.699219 C 2489.699219 1861.199219 2485.601562 1870.199219 2485.601562 1880.199219 C 2485.601562 1890.199219 2489.601562 1899.199219 2496.199219 1905.699219 C 2502.800781 1912.300781 2511.800781 1916.300781 2521.699219 1916.300781 "/>
<path fill-rule="evenodd" fill="rgb(100%, 100%, 99.609375%)" fill-opacity="1" d="M 2669.300781 1854.800781 C 2662.800781 1861.300781 2658.699219 1870.300781 2658.699219 1880.300781 C 2658.699219 1890.300781 2662.699219 1899.300781 2669.300781 1905.800781 C 2675.800781 1912.300781 2684.800781 1916.398438 2694.800781 1916.398438 C 2704.800781 1916.398438 2713.800781 1912.398438 2720.300781 1905.800781 C 2726.800781 1899.300781 2730.898438 1890.300781 2730.898438 1880.300781 C 2730.898438 1870.300781 2726.898438 1861.300781 2720.300781 1854.800781 C 2713.800781 1848.300781 2704.800781 1844.199219 2694.800781 1844.199219 C 2684.898438 1844.300781 2675.898438 1848.300781 2669.300781 1854.800781 "/>
</svg>
