<?xml version="1.0" encoding="UTF-8"?>
<svg xmlns="http://www.w3.org/2000/svg" xmlns:xlink="http://www.w3.org/1999/xlink" width="2000" height="2000" viewBox="0 0 2000 2000">
<rect x="-200" y="-200" width="2400" height="2400" fill="rgb(100%, 100%, 100%)" fill-opacity="1"/>
<path fill-rule="nonzero" fill="rgb(100%, 0%, 0%)" fill-opacity="1" d="M 911.617188 1421.757812 L 1019.011719 1291.832031 L 905.105469 1215.894531 L 1019.210938 1108.839844 L 908.804688 1006.753906 L 1023.269531 886.480469 L 940.960938 760.25 L 1013.109375 682.441406 L 946.683594 516.398438 C 880.949219 436.398438 750.152344 317.378906 567.40625 343.199219 C 296.824219 381.410156 161.535156 681.75 296.824219 1007.601562 C 417.363281 1297.902344 877.148438 1598.28125 976.0625 1660.390625 L 1025.050781 1564.601562 L 911.617188 1421.757812 "/>
<path fill-rule="nonzero" fill="rgb(100%, 0%, 0%)" fill-opacity="1" d="M 1541.441406 389.53125 C 1223.859375 244.339844 1054.648438 479.53125 1008.261719 559.320312 L 1061.058594 691.351562 L 993.054688 764.679688 L 1075.621094 891.28125 L 967.492188 1004.871094 L 1079.691406 1108.621094 L 971.195312 1210.40625 L 1079.898438 1282.875 L 964.679688 1422.273438 L 1073.839844 1559.730469 L 1024.628906 1655.933594 C 1835.558594 1212.371094 1915.710938 560.609375 1541.441406 389.53125 "/>
<path fill-rule="nonzero" fill="rgb(100%, 100%, 100%)" fill-opacity="1" d="M 1365.859375 464.070312 C 1365.859375 464.070312 1371.871094 466.558594 1382.378906 470.910156 C 1392.609375 475.199219 1406.820312 480.878906 1422.71875 487.980469 C 1430.710938 491.378906 1439.03125 495.441406 1447.609375 499.480469 C 1456.078125 503.78125 1464.839844 508.140625 1473.320312 513.140625 C 1481.859375 518.03125 1490.300781 523.21875 1498.308594 528.890625 C 1506.53125 534.339844 1513.96875 540.648438 1521.410156 546.859375 C 1528.46875 553.449219 1535.628906 559.941406 1541.789062 567.308594 C 1548.269531 574.390625 1554.078125 582.039062 1559.671875 589.789062 C 1565.140625 597.621094 1570.460938 605.550781 1575.019531 613.660156 C 1577.660156 617.550781 1579.609375 621.679688 1581.78125 625.648438 C 1583.941406 629.621094 1586.28125 633.429688 1588.039062 637.351562 C 1591.839844 645.070312 1595.789062 652.289062 1598.738281 659.019531 C 1601.929688 665.691406 1605.058594 671.628906 1607.261719 676.679688 C 1609.53125 681.699219 1611.789062 685.710938 1613.128906 688.480469 C 1614.558594 691.238281 1615.46875 692.738281 1615.46875 692.738281 C 1615.46875 692.738281 1616.21875 691.21875 1617.371094 688.351562 C 1618.421875 685.46875 1620.28125 681.21875 1622.019531 675.710938 C 1624.03125 670.199219 1625.46875 663.449219 1626.96875 655.539062 C 1628.691406 647.621094 1629.320312 638.609375 1629.78125 628.570312 C 1630.199219 623.539062 1629.589844 618.371094 1629.421875 612.898438 C 1629.160156 607.429688 1628.601562 601.808594 1627.550781 596.011719 C 1625.71875 584.429688 1622.578125 572.179688 1617.808594 559.890625 C 1612.949219 547.648438 1606.738281 535.171875 1598.488281 523.660156 C 1590.628906 511.859375 1580.589844 501.320312 1569.980469 491.578125 C 1559 482.308594 1547.28125 473.859375 1534.878906 467.53125 C 1522.621094 460.898438 1509.910156 456.070312 1497.480469 452.578125 C 1485.078125 448.941406 1472.808594 447.238281 1461.339844 446.019531 C 1449.800781 445.199219 1438.980469 445.109375 1429.070312 446.011719 C 1419.160156 446.828125 1410.210938 448.320312 1402.378906 450.179688 C 1394.558594 451.980469 1387.859375 454.160156 1382.441406 456.199219 C 1377.019531 458.199219 1372.878906 460.359375 1370.078125 461.699219 C 1367.28125 463.109375 1365.859375 464.070312 1365.859375 464.070312 "/>
</svg>
